<svg width="88" height="88" viewBox="0 0 88 88" fill="none" xmlns="http://www.w3.org/2000/svg">
<g filter="url(#filter0_d_1_8)">
<rect x="23" y="18" width="41.7571" height="41.7571" rx="20.8785" fill="#E3B873"/>
<rect x="19" y="14" width="49.7571" height="49.7571" rx="24.8785" stroke="white" stroke-width="8"/>
</g>
<path d="M38.3239 44.1323C37.3519 44.1323 36.4699 43.8743 35.6779 43.3583C34.8859 42.8423 34.2559 42.0923 33.7879 41.1083C33.3319 40.1123 33.1039 38.9303 33.1039 37.5623C33.1039 36.1943 33.3319 35.0183 33.7879 34.0343C34.2559 33.0383 34.8859 32.2823 35.6779 31.7663C36.4699 31.2503 37.3519 30.9923 38.3239 30.9923C39.2959 30.9923 40.1779 31.2503 40.9699 31.7663C41.7619 32.2823 42.3859 33.0383 42.8419 34.0343C43.3099 35.0183 43.5439 36.1943 43.5439 37.5623C43.5439 38.9303 43.3099 40.1123 42.8419 41.1083C42.3859 42.0923 41.7619 42.8423 40.9699 43.3583C40.1779 43.8743 39.2959 44.1323 38.3239 44.1323ZM38.3239 43.7723C39.7039 43.7723 40.3939 41.7023 40.3939 37.5623C40.3939 33.4223 39.7039 31.3523 38.3239 31.3523C36.9439 31.3523 36.2539 33.4223 36.2539 37.5623C36.2539 41.7023 36.9439 43.7723 38.3239 43.7723ZM44.8925 43.0523C44.8925 42.3443 45.0305 41.7023 45.3065 41.1263C45.5945 40.5383 45.9425 40.0283 46.3505 39.5963C46.7585 39.1643 47.2925 38.6543 47.9525 38.0663C48.5645 37.5263 49.0445 37.0763 49.3925 36.7163C49.7405 36.3443 50.0345 35.9303 50.2745 35.4743C50.5145 35.0063 50.6345 34.5023 50.6345 33.9623C50.6345 33.1703 50.4425 32.5523 50.0585 32.1083C49.6745 31.6643 49.1765 31.4423 48.5645 31.4423C48.2165 31.4423 47.8625 31.4903 47.5025 31.5863L47.1245 31.7123V34.5923L46.8905 34.6463C46.6985 34.6703 46.5365 34.6823 46.4045 34.6823C45.9965 34.6823 45.6665 34.5623 45.4145 34.3223C45.1745 34.0703 45.0545 33.7403 45.0545 33.3323C45.0545 32.9483 45.1985 32.5763 45.4865 32.2163C45.7865 31.8563 46.2245 31.5623 46.8005 31.3343C47.3885 31.1063 48.0965 30.9923 48.9245 30.9923C50.5445 30.9923 51.7445 31.3163 52.5245 31.9643C53.3045 32.6123 53.6945 33.5183 53.6945 34.6823C53.6945 35.4143 53.5025 36.0443 53.1185 36.5723C52.7465 37.1003 52.2845 37.5383 51.7325 37.8863C51.1925 38.2343 50.4665 38.6303 49.5545 39.0743C48.7865 39.4463 48.1625 39.7763 47.6825 40.0643C47.2145 40.3403 46.7765 40.6763 46.3685 41.0723C45.9725 41.4683 45.6905 41.9183 45.5225 42.4223H52.1825C52.2665 41.7743 52.4705 41.2343 52.7945 40.8023C52.9265 40.5983 53.0825 40.4183 53.2625 40.2623H53.8025V43.8623H44.8925V43.0523Z" fill="white"/>
<defs>
<filter id="filter0_d_1_8" x="0" y="0" width="87.7571" height="87.7571" filterUnits="userSpaceOnUse" color-interpolation-filters="sRGB">
<feFlood flood-opacity="0" result="BackgroundImageFix"/>
<feColorMatrix in="SourceAlpha" type="matrix" values="0 0 0 0 0 0 0 0 0 0 0 0 0 0 0 0 0 0 127 0" result="hardAlpha"/>
<feOffset dy="5"/>
<feGaussianBlur stdDeviation="7.5"/>
<feColorMatrix type="matrix" values="0 0 0 0 0.890196 0 0 0 0 0.721569 0 0 0 0 0.45098 0 0 0 0.15 0"/>
<feBlend mode="normal" in2="BackgroundImageFix" result="effect1_dropShadow_1_8"/>
<feBlend mode="normal" in="SourceGraphic" in2="effect1_dropShadow_1_8" result="shape"/>
</filter>
</defs>
</svg>
