<svg width="88" height="88" viewBox="0 0 88 88" fill="none" xmlns="http://www.w3.org/2000/svg">
<g filter="url(#filter0_d_1_8)">
<rect x="23" y="18" width="41.7571" height="41.7571" rx="20.8785" fill="#E3B873"/>
<rect x="19" y="14" width="49.7571" height="49.7571" rx="24.8785" stroke="white" stroke-width="8"/>
</g>
<path d="M38.1042 44.1323C37.1322 44.1323 36.2502 43.8743 35.4582 43.3583C34.6662 42.8423 34.0362 42.0923 33.5682 41.1083C33.1122 40.1123 32.8842 38.9303 32.8842 37.5623C32.8842 36.1943 33.1122 35.0183 33.5682 34.0343C34.0362 33.0383 34.6662 32.2823 35.4582 31.7663C36.2502 31.2503 37.1322 30.9923 38.1042 30.9923C39.0762 30.9923 39.9582 31.2503 40.7502 31.7663C41.5422 32.2823 42.1662 33.0383 42.6222 34.0343C43.0902 35.0183 43.3242 36.1943 43.3242 37.5623C43.3242 38.9303 43.0902 40.1123 42.6222 41.1083C42.1662 42.0923 41.5422 42.8423 40.7502 43.3583C39.9582 43.8743 39.0762 44.1323 38.1042 44.1323ZM38.1042 43.7723C39.4842 43.7723 40.1742 41.7023 40.1742 37.5623C40.1742 33.4223 39.4842 31.3523 38.1042 31.3523C36.7242 31.3523 36.0342 33.4223 36.0342 37.5623C36.0342 41.7023 36.7242 43.7723 38.1042 43.7723ZM48.3628 43.8623V43.5923L49.6228 43.2323V40.5323H44.4928L44.1328 39.9923L50.8828 31.0823H52.5928V39.7223H54.4828V40.5323H52.5928V43.2323L53.8528 43.5923V43.8623H48.3628ZM45.1228 39.7223H49.6228V33.7823L45.1228 39.7223Z" fill="white"/>
<defs>
<filter id="filter0_d_1_8" x="0" y="0" width="87.7571" height="87.7571" filterUnits="userSpaceOnUse" color-interpolation-filters="sRGB">
<feFlood flood-opacity="0" result="BackgroundImageFix"/>
<feColorMatrix in="SourceAlpha" type="matrix" values="0 0 0 0 0 0 0 0 0 0 0 0 0 0 0 0 0 0 127 0" result="hardAlpha"/>
<feOffset dy="5"/>
<feGaussianBlur stdDeviation="7.5"/>
<feColorMatrix type="matrix" values="0 0 0 0 0.890196 0 0 0 0 0.721569 0 0 0 0 0.45098 0 0 0 0.15 0"/>
<feBlend mode="normal" in2="BackgroundImageFix" result="effect1_dropShadow_1_8"/>
<feBlend mode="normal" in="SourceGraphic" in2="effect1_dropShadow_1_8" result="shape"/>
</filter>
</defs>
</svg>
